# xmcd
#
# Track frame offsets:
#	150
#	11537
#	25025
#	35150
#	48350
#	65520
#	76505
#	89150
#	104435
#	112910
#	125962
#	136702
#	149520
#	159822
#	172832
#	182407
#	194162
#	204947
#
# Disc length: 2806
#
# Revision: 1
# Processed by: cddbd v1.5.1PL0 Copyright (c) Steve Scherf et al.
# Submitted via: FreeRIP 2.92 
# Normalized: r0:TDELIM( - )
#
DISCID=ee0af412
DTITLE=Music Goes On - Country Greats
DYEAR=1900
DGENRE=Folk/Rock
TTITLE0=Ray Drusky - Blue eyes cryin' in the rain
TTITLE1=Kenny Rogers - Shine on ruby mountain
TTITLE2=Willie Nelson - I didn't sleep a wink
TTITLE3=Donna Fargo - Daddy
TTITLE4=Johnny Lee - Your song
TTITLE5=Patsy Cline - Stop, look and listen
TTITLE6=Kitty Wells - Makin' believe
TTITLE7=Barbara Fairchild - Slippin' away
TTITLE8=Waylon Jennings - Abilene
TTITLE9=Kenny Rogers - Ruby don't take your love to town
TTITLE10=Willie Nelson - I feel sorry for him
TTITLE11=Don Williams - Where do we go from here
TTITLE12=Patsy Cline - Turn the cards slowly
TTITLE13=Frankie Laine - Moonlight gambler
TTITLE14=Ned Miller - From a jack to a king
TTITLE15=Kenny Rogers - Elvira
TTITLE16=Tex Ritter - Have i stayed away too long
TTITLE17=Willie Nelson - The ghost
EXTD=
EXTT0=
EXTT1=
EXTT2=
EXTT3=
EXTT4=
EXTT5=
EXTT6=
EXTT7=
EXTT8=
EXTT9=
EXTT10=
EXTT11=
EXTT12=
EXTT13=
EXTT14=
EXTT15=
EXTT16=
EXTT17=
PLAYORDER=
